<svg width="16" height="16" viewBox="0 0 16 16" fill="none" xmlns="http://www.w3.org/2000/svg">
<path d="M8 4C8.74 4 9.33333 3.4 9.33333 2.66667C9.33333 2.41333 9.26667 2.18 9.14 1.98L8 0L6.86 1.98C6.73333 2.18 6.66667 2.41333 6.66667 2.66667C6.66667 3.4 7.26667 4 8 4ZM11.0667 10.66L10.3533 9.94667L9.63333 10.66C8.76667 11.5267 7.24667 11.5333 6.37333 10.66L5.66 9.94667L4.93333 10.66C4.5 11.0933 3.92 11.3333 3.30667 11.3333C2.82 11.3333 2.37333 11.18 2 10.9267V14C2 14.3667 2.3 14.6667 2.66667 14.6667H13.3333C13.7 14.6667 14 14.3667 14 14V10.9267C13.6267 11.18 13.18 11.3333 12.6933 11.3333C12.08 11.3333 11.5 11.0933 11.0667 10.66V10.66ZM12 6H8.66667V4.66667H7.33333V6H4C2.89333 6 2 6.89333 2 8V9.02667C2 9.74667 2.58667 10.3333 3.30667 10.3333C3.65333 10.3333 3.98667 10.2 4.22667 9.95333L5.65333 8.53333L7.07333 9.95333C7.56667 10.4467 8.42667 10.4467 8.92 9.95333L10.3467 8.53333L11.7667 9.95333C12.0133 10.2 12.34 10.3333 12.6867 10.3333C13.4067 10.3333 13.9933 9.74667 13.9933 9.02667V8C14 6.89333 13.1067 6 12 6Z" fill="#424242"/>
</svg>
