<?xml version="1.0" encoding="utf-8"?>
<!-- Generator: Adobe Illustrator 16.0.0, SVG Export Plug-In . SVG Version: 6.00 Build 0)  -->
<!DOCTYPE svg PUBLIC "-//W3C//DTD SVG 1.1//EN" "http://www.w3.org/Graphics/SVG/1.1/DTD/svg11.dtd">
<svg version="1.1" id="Layer_1" xmlns="http://www.w3.org/2000/svg" xmlns:xlink="http://www.w3.org/1999/xlink" x="0px" y="0px"
	 width="74px" height="73px" viewBox="0 0 74 73" enable-background="new 0 0 74 73" xml:space="preserve">
<path fill="#AE132A" d="M72.104,41.673c-2.203-3.824-6.154-6.105-10.568-6.105H48.357l4.529-7.917L37.279,0.613l-0.201-0.348
	L21.205,27.763l4.5,7.865h-13.24c-4.414,0-8.365,2.283-10.567,6.107c-2.205,3.818-2.205,8.379,0,12.197L9.34,66.829
	c2.207,3.824,6.158,6.105,10.569,6.105s8.366-2.285,10.581-6.117l6.524-11.412l6.506,11.367c2.207,3.82,6.158,6.102,10.567,6.102
	c4.412,0,8.365-2.281,10.574-6.105l7.442-12.896C74.307,50.054,74.307,45.493,72.104,41.673 M7.149,44.761
	c1.108-1.92,3.095-3.066,5.315-3.066h16.707l4.351,7.598l-8.294,14.506c-1.108,1.924-3.096,3.072-5.32,3.072
	c-2.22,0-4.207-1.148-5.316-3.068L7.149,50.907C6.034,48.983,6.034,46.685,7.149,44.761 M66.852,50.845l-7.443,12.898
	c-1.109,1.918-3.1,3.064-5.321,3.064c-2.221,0-4.206-1.141-5.311-3.055l-8.269-14.455l4.383-7.666h16.645
	c2.22,0,4.207,1.148,5.316,3.068C67.967,46.624,67.967,48.923,66.852,50.845 M45.891,27.659l-8.875,15.529l-8.817-15.413l8.88-15.38
	L45.891,27.659z"/>
</svg>
