<svg id="Layer_1" data-name="Layer 1" xmlns="http://www.w3.org/2000/svg" width="100" height="24.535" viewBox="0 0 100 24.535"><defs><style>.cls-1{fill:#000;}</style></defs><path class="cls-1" d="M87.6135,28.7662A12.2674,12.2674,0,1,1,100,16.4992a12.3406,12.3406,0,0,1-12.3865,12.267m0-19.2724a7.0059,7.0059,0,1,0,7.0737,7.0054,7.047,7.047,0,0,0-7.0737-7.0054" transform="translate(0 -4.2325)"/><polygon class="cls-1" points="0.201 0 0.201 5.222 14.228 5.222 0 19.313 0 24.535 21.684 24.535 21.684 19.313 7.456 19.313 21.684 5.222 21.684 0 0.201 0"/><rect class="cls-1" x="25.1627" width="5.2722" height="24.535"/><path class="cls-1" d="M52.7053,12.3959A9.006,9.006,0,0,0,43.59,4.2325H33.9455V28.7673h5.3051V21.8658h4.5758a8.7435,8.7435,0,0,0,8.8789-9.47m-5.7914,2.7889a3.68,3.68,0,0,1-2.9562,1.5978H39.2506V9.3166H43.845a3.7329,3.7329,0,0,1,3.0689,5.8682" transform="translate(0 -4.2325)"/><path class="cls-1" d="M73.5436,12.3959a9.0058,9.0058,0,0,0-9.1153-8.1634H54.7839V28.7673h5.3053V21.8658h4.5753a8.7431,8.7431,0,0,0,8.8791-9.47m-5.7911,2.7889a3.6811,3.6811,0,0,1-2.9562,1.5978H60.0892V9.3166h4.5942a3.7329,3.7329,0,0,1,3.0691,5.8682" transform="translate(0 -4.2325)"/></svg>